<?xml version="1.0" encoding="utf-8"?>
<!-- Generator: Adobe Illustrator 19.2.1, SVG Export Plug-In . SVG Version: 6.00 Build 0)  -->
<svg version="1.1" id="形状_1_1_" xmlns="http://www.w3.org/2000/svg" xmlns:xlink="http://www.w3.org/1999/xlink" x="0px"
	 y="0px" viewBox="0 0 592.5 592.5" style="enable-background:new 0 0 592.5 592.5;" xml:space="preserve">
<style type="text/css">
	.st0{fill:#FFFFFF;}
</style>
<g>
	<g>
		<path class="st0" d="M349.3,317.1c16.1-30.1,32.3-60.2,48.3-90.3c-29.8,13.6-70.1,33.8-89.3,40.9c-11.8-11.4-72.3-72-72.9-71.8
			c3.6,33.3,7.1,66.5,10.6,99.5c-26.2,12.6-52.6,25.1-78.8,37.7c-4.5,2.2-9.1,4.3-13.6,6.6c24.6,5.1,49,10.1,73.5,15.3
			c-0.3,0.4-149,140.6-149,140.6l26,29.5l151.6-142c0,0,6.9,50.2,10.4,74.2c0,1.2,0.3,2.1,0.3,3.2c16.8-29.3,33.7-58.6,50.4-87.8
			c33.4,6.8,91.3,18.3,100.5,20.4C405.9,378.7,364.6,329.3,349.3,317.1z"/>
	</g>
</g>
<rect x="305.4" y="100.7" class="st0" width="27.6" height="74.5"/>
<rect x="348" y="132" transform="matrix(0.3833 -0.9236 0.9236 0.3833 102.9546 445.7429)" class="st0" width="74.5" height="27.6"/>
<rect x="401.5" y="167.4" transform="matrix(0.7071 -0.7071 0.7071 0.7071 0.3897 363.2559)" class="st0" width="74.5" height="27.6"/>
<rect x="438.7" y="220.8" transform="matrix(0.9241 -0.3822 0.3822 0.9241 -53.5278 199.6913)" class="st0" width="74.5" height="27.6"/>
<rect x="447.5" y="290" class="st0" width="74.5" height="27.6"/>
</svg>
