<?xml version="1.0" encoding="utf-8"?>
<!-- Generator: Adobe Illustrator 19.2.1, SVG Export Plug-In . SVG Version: 6.00 Build 0)  -->
<svg version="1.1" id="形状_1_1_" xmlns="http://www.w3.org/2000/svg" xmlns:xlink="http://www.w3.org/1999/xlink" x="0px"
	 y="0px" viewBox="0 0 300 300" style="enable-background:new 0 0 300 300;" xml:space="preserve">
<style type="text/css">
	.st0{fill:#0F88EB;}
</style>
<g id="形状_1">
	<g>
		<path class="st0" d="M0,0c0,100,0,200,0,300c100,0,200,0,300,0c0-100,0-200,0-300C200,0,100,0,0,0z M276,276H24V24h252V276z
			 M88,181c42.1,5.4,76.7-25.4,54-72c-11.8-19.8-44.6-21.7-77-18c0,46.7,0,93.3,0,140c7.3,0.3,14.7,0.7,22,1
			C87.3,215,87.7,198,88,181z M88,111c47.7-9.5,54.3,58.5,0,49C88,143.7,88,127.3,88,111z M171,178c8.3,5.7,33.2,18.3,29,30
			c-5.8,10.6-26.8,3.8-38-2c0,7.7,0,15.3,0,23c27.5,8.9,67.1,8.6,60-36c-10.2-24.9-33.9-20.5-40-39c0.5-14.8,19.8-8.6,37-3
			c0-7.3,0-12.7,0-20c-8.7-3.3-17.1-6.1-28-6C168.9,125.1,145.5,157.8,171,178z"/>
	</g>
</g>
</svg>
